# xmcd
#
# Track frame offsets:
#	150
#	14780
#	28820
#	43665
#	59271
#	71407
#	94269
#	111742
#	126777
#	142502
#
# Disc length: 2119 seconds
#
# Revision: 3
# Processed by: cddbd v1.5.2PL0 Copyright (c) Steve Scherf et al.
# Submitted via: EasyCDDAExtractor 9.1.3.1
#
DISCID=8f08450a
DTITLE=Ronnie Milsap - Stranger Things Have Happened
DYEAR=1989
DGENRE=Country
TTITLE0=Stranger Things Have Happened
TTITLE1=Don't You Ever Get Tired (Of Hurting Me)
TTITLE2=A Woman In Love
TTITLE3=You Snap Your Fingers (And I'm Back In Your Hands)
TTITLE4=Starting Today
TTITLE5=Roll The Dice
TTITLE6=I Feel Like I'm Cheating On You
TTITLE7=I Never Expected To See You
TTITLE8=Houston Solution
TTITLE9=Southern Roots
EXTD=
EXTT0=
EXTT1=
EXTT2=
EXTT3=
EXTT4=
EXTT5=
EXTT6=
EXTT7=
EXTT8=
EXTT9=
PLAYORDER=
